<?xml version="1.0" standalone="no"?><!DOCTYPE svg PUBLIC "-//W3C//DTD SVG 1.1//EN" "http://www.w3.org/Graphics/SVG/1.1/DTD/svg11.dtd"><svg t="1608969585589" class="icon" viewBox="0 0 1024 1024" version="1.1" xmlns="http://www.w3.org/2000/svg" p-id="3098" width="64" height="64" xmlns:xlink="http://www.w3.org/1999/xlink"><defs><style type="text/css"></style></defs><path d="M512 23.272727C242.082909 23.272727 23.272727 242.082909 23.272727 512s218.810182 488.727273 488.727273 488.727273 488.727273-218.810182 488.727273-488.727273S781.917091 23.272727 512 23.272727m0 69.818182c230.981818 0 418.909091 187.927273 418.909091 418.909091s-187.927273 418.909091-418.909091 418.909091S93.090909 742.981818 93.090909 512 281.018182 93.090909 512 93.090909m90.763636 684.218182a34.955636 34.955636 0 0 1-24.692363-59.601455A288.907636 288.907636 0 0 0 663.272727 512c0-77.707636-30.254545-150.760727-85.224727-205.707636a34.932364 34.932364 0 0 1 49.384727-49.338182A358.330182 358.330182 0 0 1 733.090909 512a358.4 358.4 0 0 1-105.658182 255.069091 34.792727 34.792727 0 0 1-24.669091 10.193454m-122.018909-98.722909a34.955636 34.955636 0 0 1-24.692363-59.601454 151.482182 151.482182 0 0 0 0-213.946182 34.932364 34.932364 0 0 1 49.384727-49.338182c86.178909 86.178909 86.178909 226.443636 0 312.669091a34.792727 34.792727 0 0 1-24.669091 10.24m-75.496727-133.678545a46.545455 46.545455 0 1 1-65.815273-65.815273 46.545455 46.545455 0 0 1 65.815273 65.815273" fill="#2c2c2c" p-id="3099" data-spm-anchor-id="a313x.7781069.0.i0" class=""></path></svg>