<?xml version="1.0" standalone="no"?><!DOCTYPE svg PUBLIC "-//W3C//DTD SVG 1.1//EN" "http://www.w3.org/Graphics/SVG/1.1/DTD/svg11.dtd"><svg t="1608969871070" class="icon" viewBox="0 0 1024 1024" version="1.1" xmlns="http://www.w3.org/2000/svg" p-id="16198" xmlns:xlink="http://www.w3.org/1999/xlink" width="64" height="64"><defs><style type="text/css"></style></defs><path d="M513.999 962c-247.039 0-448-200.958-448-448s200.99-448.001 448-448.001c247.007 0 448.001 200.96 448.001 448S761.04 962 513.999 962z m0-832c-211.744 0-384 172.255-384 384s172.255 384 384 384c211.743 0 384-172.256 384-384s-172.256-384-384-384z m1.056 645.343c-89.184 0-171.903-40.32-226.912-110.623-10.88-13.92-8.448-34.017 5.473-44.897 13.888-10.911 34.016-8.48 44.927 5.472 42.784 54.689 107.136 86.049 176.512 86.049 70.111 0 134.88-31.904 177.664-87.552 10.785-14.016 30.85-16.672 44.864-5.89 14.016 10.786 16.673 30.881 5.888 44.865-55.008 71.551-138.27 112.575-228.416 112.575v0.001z m-144-258.143c-26.529 0-48-21.472-48-48v-64c0-26.527 21.472-48 48-48s48 21.473 48 48v64c0 26.495-21.505 48-48 48z m288 0c-26.496 0-48-21.472-48-48v-64c0-26.527 21.505-48 48-48s47.999 21.473 47.999 48v64c0 26.495-21.503 48-48 48z" p-id="16199" data-spm-anchor-id="a313x.7781069.0.i4" class="selected"></path></svg>