<?xml version="1.0" standalone="no"?><!DOCTYPE svg PUBLIC "-//W3C//DTD SVG 1.1//EN" "http://www.w3.org/Graphics/SVG/1.1/DTD/svg11.dtd"><svg t="1608969919069" class="icon" viewBox="0 0 1024 1024" version="1.1" xmlns="http://www.w3.org/2000/svg" p-id="19880" xmlns:xlink="http://www.w3.org/1999/xlink" width="64" height="64"><defs><style type="text/css"></style></defs><path d="M512 96c229.75 0 416 186.25 416 416S741.75 928 512 928 96 741.75 96 512 282.25 96 512 96z m0 64c-194.404 0-352 157.596-352 352s157.596 352 352 352 352-157.596 352-352-157.596-352-352-352z m0 160c17.673 0 32 14.327 32 32v128h128c17.673 0 32 14.327 32 32 0 17.673-14.327 32-32 32H544v128c0 17.673-14.327 32-32 32-17.673 0-32-14.327-32-32V544H352c-17.673 0-32-14.327-32-32 0-17.673 14.327-32 32-32h128V352c0-17.673 14.327-32 32-32z" p-id="19881" data-spm-anchor-id="a313x.7781069.0.i6" class="selected"></path></svg>